<svg xmlns="http://www.w3.org/2000/svg" viewBox="0 0 100 100"><rect width="100" height="100" rx="22" fill="#ffffff"/><g fill="none" stroke="#e21b1b" stroke-width="7.2" stroke-linejoin="round"><path d="M74.80 28.73 L74.71 28.40 L74.62 28.08 L74.52 27.76 L74.42 27.44 L74.31 27.13 L74.20 26.82 L74.09 26.52 L73.97 26.21 L73.85 25.92 L73.73 25.62 L73.60 25.33 L73.47 25.05 L73.33 24.76 L73.20 24.48 L73.05 24.21 L72.91 23.93 L72.76 23.66 L72.61 23.40 L72.45 23.13 L72.29 22.87 L72.13 22.61 L71.97 22.36 L71.80 22.10 L71.62 21.85 L71.45 21.61 L71.27 21.36 L71.08 21.12 L70.90 20.88 L70.71 20.65 L70.51 20.42 L70.32 20.19 L70.12 19.96 L69.91 19.73 L69.70 19.51 L69.49 19.29 L69.28 19.07 L69.06 18.86 L68.84 18.65 L68.61 18.44 L68.38 18.23 L68.14 18.03 L67.90 17.82 L67.66 17.63 L67.41 17.43 L67.16 17.24 L66.91 17.04 L66.65 16.86 L66.38 16.67 L66.12 16.49 L65.84 16.31 L65.56 16.13 L65.28 15.95 L64.99 15.78 L64.70 15.61 L64.40 15.45 L64.10 15.29 L63.79 15.13 L63.48 14.97 L63.16 14.82 L62.84 14.67 L62.51 14.52 L62.17 14.38 L61.83 14.24 L61.48 14.10 L61.13 13.97 L60.77 13.84 L60.41 13.71 L60.03 13.59 L59.65 13.48 L59.27 13.36 L58.87 13.26 L58.47 13.15 L58.06 13.06 L57.65 12.96 L57.22 12.88 L56.79 12.79 L56.35 12.72 L55.91 12.65 L55.45 12.58 L54.99 12.52 L54.51 12.47 L54.03 12.43 L53.54 12.39 L53.04 12.36 L52.53 12.33 L52.01 12.32 L51.48 12.31 L50.94 12.31 L50.39 12.33 L49.82 12.35 L49.25 12.38 L48.67 12.42 L48.07 12.47 L47.47 12.54 L46.85 12.61 L46.22 12.70 L45.58 12.80 L44.93 12.92 L44.27 13.04 L43.59 13.19 L42.90 13.35 L42.20 13.52 L41.49 13.72 L40.76 13.93 L40.02 14.16 L39.27 14.41 L38.51 14.68 L37.73 14.97 L36.94 15.28 L36.14 15.61 L35.33 15.97 L34.51 16.36 L33.68 16.77 L32.83 17.21 L31.98 17.67 L31.12 18.17 L30.25 18.69 L29.37 19.25 L28.49 19.84 L27.60 20.46 L26.70 21.12 L25.81 21.81 L24.91 22.54 L24.01 23.31 L23.12 24.11 L22.23 24.96 L21.34 25.84 L20.47 26.76 L19.61 27.72 L18.76 28.73 L17.93 29.77 L17.12 30.86 L16.33 31.98 L15.57 33.15 L14.85 34.35 L14.15 35.59 L13.50 36.86 L12.89 38.17 L12.32 39.51 L11.81 40.88 L11.36 42.28 L10.96 43.70 L10.62 45.14 L10.36 46.59 L10.16 48.06 L10.04 49.53 L10.00 51.00 L10.04 52.47 L10.16 53.93 L10.36 55.37 L10.65 56.80 L11.03 58.19 L11.50 59.56 L12.05 60.88 L12.69 62.17 L13.41 63.40 L14.21 64.58 L15.10 65.70 L16.05 66.76 L17.08 67.75 L18.18 68.67 L19.34 69.52 L20.56 70.29 L21.83 70.99 L23.14 71.61 L24.50 72.15 L25.89 72.61 L27.31 72.99 L28.75 73.30 L30.21 73.53 L31.68 73.69 L33.15 73.77 L34.63 73.79 L36.10 73.74 L37.57 73.63 L39.02 73.45 L40.45 73.23 L41.87 72.94 L43.26 72.61 L44.63 72.24 L45.97 71.82 L47.28 71.36 L48.56 70.86 L49.80 70.34 L51.01 69.78 L52.19 69.20 L53.33 68.59 L54.43 67.96 L55.50 67.32 L56.53 66.65 L57.52 65.98 L58.48 65.29 L59.40 64.60 L60.28 63.90 L61.13 63.19 L61.95 62.47 L62.73 61.76 L63.48 61.04 L64.19 60.32 L64.88 59.61 L65.54 58.89 L66.16 58.18 L66.76 57.47 L67.33 56.77 L67.87 56.07 L68.39 55.37 L68.88 54.69 L69.34 54.00 L69.79 53.33 L70.21 52.66 L70.61 52.00 L70.99 51.35 L71.34 50.70 L71.68 50.07 L72.00 49.44 L72.30 48.82 L72.59 48.21 L72.85 47.60 L73.11 47.00 L73.34 46.42 L73.56 45.84 L73.77 45.27 L73.96 44.70 L74.14 44.15 L74.31 43.60 L74.46 43.06 L74.61 42.53 L74.74 42.01 L74.86 41.49 L74.97 40.99 L75.07 40.49 L75.16 39.99 L75.24 39.51 L75.31 39.03 L75.38 38.56 L75.43 38.10 L75.48 37.64 L75.51 37.19 L75.55 36.74 L75.57 36.31 L75.59 35.87 L75.60 35.45 L75.60 35.03 L75.60 34.62 L75.59 34.21 L75.57 33.81 L75.55 33.41 L75.52 33.02 L75.49 32.64 L75.45 32.26 L75.41 31.88 L75.36 31.51 L75.30 31.15 L75.25 30.79 L75.18 30.43 L75.11 30.08 L75.04 29.74 L74.97 29.40 L74.88 29.06 L74.80 28.73 Z"/><path d="M82.78 28.73 L82.43 28.21 L82.07 27.72 L81.71 27.23 L81.35 26.77 L80.99 26.32 L80.63 25.88 L80.27 25.46 L79.91 25.05 L79.55 24.66 L79.19 24.28 L78.83 23.91 L78.47 23.55 L78.12 23.21 L77.76 22.88 L77.41 22.56 L77.05 22.25 L76.70 21.95 L76.34 21.66 L75.99 21.38 L75.64 21.11 L75.29 20.85 L74.95 20.60 L74.60 20.36 L74.25 20.13 L73.91 19.91 L73.57 19.69 L73.23 19.48 L72.89 19.29 L72.55 19.09 L72.21 18.91 L71.88 18.73 L71.54 18.56 L71.21 18.40 L70.88 18.25 L70.55 18.10 L70.22 17.95 L69.89 17.82 L69.57 17.69 L69.24 17.57 L68.92 17.45 L68.60 17.34 L68.27 17.23 L67.95 17.13 L67.63 17.03 L67.32 16.94 L67.00 16.86 L66.68 16.78 L66.37 16.71 L66.05 16.64 L65.74 16.58 L65.43 16.52 L65.12 16.46 L64.81 16.41 L64.50 16.37 L64.19 16.33 L63.88 16.30 L63.57 16.27 L63.26 16.24 L62.96 16.22 L62.65 16.20 L62.35 16.19 L62.04 16.18 L61.74 16.18 L61.43 16.18 L61.13 16.19 L60.83 16.20 L60.53 16.22 L60.22 16.23 L59.92 16.26 L59.62 16.29 L59.32 16.32 L59.02 16.36 L58.72 16.40 L58.42 16.44 L58.12 16.49 L57.82 16.55 L57.51 16.61 L57.21 16.67 L56.91 16.74 L56.61 16.82 L56.31 16.89 L56.01 16.98 L55.71 17.07 L55.41 17.16 L55.11 17.26 L54.81 17.36 L54.51 17.47 L54.21 17.58 L53.90 17.70 L53.60 17.82 L53.30 17.95 L53.00 18.08 L52.69 18.22 L52.39 18.37 L52.09 18.52 L51.78 18.68 L51.48 18.84 L51.17 19.01 L50.87 19.18 L50.56 19.37 L50.26 19.55 L49.95 19.75 L49.64 19.95 L49.34 20.16 L49.03 20.38 L48.72 20.60 L48.41 20.83 L48.11 21.07 L47.80 21.31 L47.49 21.57 L47.18 21.83 L46.87 22.10 L46.56 22.38 L46.25 22.67 L45.94 22.97 L45.63 23.27 L45.32 23.59 L45.01 23.92 L44.71 24.26 L44.40 24.60 L44.09 24.96 L43.78 25.33 L43.47 25.71 L43.17 26.11 L42.86 26.51 L42.56 26.93 L42.26 27.36 L41.96 27.80 L41.66 28.26 L41.36 28.73 L41.06 29.21 L40.77 29.71 L40.48 30.23 L40.19 30.76 L39.91 31.31 L39.63 31.87 L39.35 32.45 L39.08 33.04 L38.81 33.66 L38.55 34.29 L38.30 34.95 L38.05 35.62 L37.81 36.31 L37.57 37.02 L37.34 37.75 L37.13 38.50 L36.92 39.28 L36.72 40.07 L36.53 40.89 L36.36 41.73 L36.20 42.59 L36.05 43.48 L35.92 44.39 L35.80 45.32 L35.70 46.28 L35.62 47.26 L35.56 48.27 L35.52 49.29 L35.51 50.35 L35.52 51.42 L35.55 52.52 L35.61 53.64 L35.70 54.78 L35.82 55.95 L35.97 57.13 L36.16 58.33 L36.38 59.55 L36.64 60.78 L36.93 62.03 L37.27 63.29 L37.65 64.56 L38.08 65.84 L38.55 67.12 L39.07 68.40 L39.64 69.68 L40.26 70.95 L40.93 72.21 L41.65 73.46 L42.42 74.68 L43.25 75.89 L44.13 77.06 L45.06 78.20 L46.04 79.30 L47.07 80.36 L48.16 81.36 L49.29 82.31 L50.47 83.20 L51.69 84.02 L52.95 84.77 L54.24 85.44 L55.57 86.03 L56.93 86.54 L58.31 86.96 L59.72 87.28 L61.13 87.52 L62.56 87.65 L63.98 87.69 L65.41 87.63 L66.83 87.47 L68.23 87.21 L69.62 86.86 L70.98 86.41 L72.32 85.87 L73.62 85.25 L74.89 84.54 L76.11 83.75 L77.29 82.89 L78.43 81.96 L79.51 80.96 L80.54 79.90 L81.52 78.79 L82.44 77.64 L83.30 76.44 L84.11 75.21 L84.86 73.94 L85.55 72.65 L86.19 71.34 L86.78 70.01 L87.30 68.68 L87.78 67.33 L88.20 65.99 L88.58 64.64 L88.90 63.31 L89.18 61.97 L89.42 60.65 L89.61 59.35 L89.76 58.06 L89.87 56.78 L89.95 55.53 L89.99 54.30 L90.00 53.08 L89.98 51.90 L89.93 50.73 L89.85 49.60 L89.75 48.48 L89.63 47.40 L89.48 46.34 L89.31 45.30 L89.13 44.30 L88.92 43.31 L88.70 42.36 L88.47 41.43 L88.22 40.53 L87.96 39.65 L87.69 38.80 L87.41 37.97 L87.12 37.17 L86.82 36.39 L86.51 35.64 L86.19 34.91 L85.87 34.20 L85.54 33.51 L85.21 32.84 L84.87 32.20 L84.53 31.57 L84.19 30.96 L83.84 30.38 L83.49 29.81 L83.14 29.26 L82.78 28.73 Z"/></g><circle cx="61.13" cy="28.73" r="7.4" fill="#05080f"/></svg>